Role Models (Unrated) 2008 BRRip H264 AAC-MS.mp4
      Format : MPEG-4
      Format profile : Base Media
      Codec ID : isom
      File size : 1.50 GiB
      Duration : 1h 41mn
      Overall bit rate : 2 120 Kbps
      
     
   Video #2
      Format : AVC
      Format/Info : Advanced Video Codec
      Format profile : High@L4.1
      Format settings, CABAC : Yes
      Format settings, ReFrames : 3 frames
      Codec ID : avc1
      Codec ID/Info : Advanced Video Coding
      Duration : 1h 41mn
      Bit rate mode : Variable
      Bit rate : 1 800 Kbps
      Maximum bit rate : 11.3 Mbps
      Width : 1 280 pixels
      Height : 720 pixels
      Display aspect ratio : 16/9
      Frame rate mode : Constant
      Frame rate : 23.976 fps
      Resolution : 24 bits
      Colorimetry : 4:2:0
      Scan type : Progressive
      Bits/(Pixel*Frame) : 0.081
      Stream size : 1.27 GiB (85%)
      Writing library : x264 core 80 r1376M 3feaec2
    
   Audio #1
      Format : AAC
      Format/Info : Advanced Audio Codec
      Format version : Version 4
      Format profile : LC
      Format settings, SBR : No
      Codec ID : 40
      Duration : 1h 41mn
      Bit rate mode : Variable
      Bit rate : 317 Kbps
      Maximum bit rate : 335 Kbps
      Channel(s) : 6 channels
      Channel positions : Front: L C R, Rear: L R, LFE
      Sampling rate : 48.0 KHz
      Resolution : 16 bits
      Stream size : 230 MiB (15%)
      

SCREEN: 
http://i865.photobucket.com/albums/ab211/revisionx/Screenshot/vlcsnap-75852.jpg 
http://i865.photobucket.com/albums/ab211/revisionx/Screenshot/vlcsnap-76588.jpg 
http://i865.photobucket.com/albums/ab211/revisionx/Screenshot/vlcsnap-77127.jpg